<svg id="Layer_1" data-name="Layer 1" xmlns="http://www.w3.org/2000/svg" xmlns:xlink="http://www.w3.org/1999/xlink" width="209" height="36" viewBox="0 0 209 36"><defs><clipPath id="clip-path"><polygon points="90.02 11.03 89.77 11.03 89.63 9.65 90.19 9.65 90.02 11.03" fill="#7a7a7a" clip-rule="evenodd"/></clipPath><clipPath id="clip-path-2"><rect x="80.95" y="9.65" width="106.61" height="17.82" fill="#7a7a7a"/></clipPath><clipPath id="clip-path-3"><polygon points="88.12 11.21 87.85 11.28 87.33 9.93 87.92 9.78 88.12 11.21" fill="#7a7a7a" clip-rule="evenodd"/></clipPath><clipPath id="clip-path-5"><polygon points="86.31 11.9 86.07 12.03 85.22 10.86 85.74 10.56 86.31 11.9" fill="#7a7a7a" clip-rule="evenodd"/></clipPath><clipPath id="clip-path-7"><polygon points="84.7 13 84.52 13.19 83.41 12.28 83.82 11.86 84.7 13" fill="#7a7a7a" clip-rule="evenodd"/></clipPath><clipPath id="clip-path-9"><polygon points="83.47 14.53 83.34 14.76 82.01 14.16 82.31 13.63 83.47 14.53" fill="#7a7a7a" clip-rule="evenodd"/></clipPath><clipPath id="clip-path-11"><polygon points="82.66 16.27 82.59 16.54 81.15 16.3 81.31 15.72 82.66 16.27" fill="#7a7a7a" clip-rule="evenodd"/></clipPath><clipPath id="clip-path-13"><polygon points="82.34 18.18 82.34 18.43 80.95 18.57 80.95 18.01 82.34 18.18" fill="#7a7a7a" clip-rule="evenodd"/></clipPath><clipPath id="clip-path-15"><polygon points="82.48 20.12 82.55 20.38 81.2 20.9 81.05 20.32 82.48 20.12" fill="#7a7a7a" clip-rule="evenodd"/></clipPath><clipPath id="clip-path-17"><polygon points="83.17 21.96 83.3 22.2 82.13 23.05 81.84 22.53 83.17 21.96" fill="#7a7a7a" clip-rule="evenodd"/></clipPath><clipPath id="clip-path-19"><polygon points="84.28 23.53 84.46 23.72 83.55 24.83 83.13 24.41 84.28 23.53" fill="#7a7a7a" clip-rule="evenodd"/></clipPath><clipPath id="clip-path-21"><polygon points="85.77 24.76 86 24.89 85.42 26.23 84.91 25.93 85.77 24.76" fill="#7a7a7a" clip-rule="evenodd"/></clipPath><clipPath id="clip-path-23"><polygon points="87.55 25.58 87.81 25.65 87.57 27.08 86.99 26.93 87.55 25.58" fill="#7a7a7a" clip-rule="evenodd"/></clipPath><clipPath id="clip-path-25"><polygon points="89.46 25.93 89.71 25.93 89.85 27.31 89.29 27.31 89.46 25.93" fill="#7a7a7a" clip-rule="evenodd"/></clipPath><clipPath id="clip-path-27"><polygon points="91.39 25.75 91.65 25.68 92.18 27.03 91.59 27.18 91.39 25.75" fill="#7a7a7a" clip-rule="evenodd"/></clipPath><clipPath id="clip-path-29"><polygon points="93.2 25.06 93.43 24.93 94.29 26.1 93.77 26.4 93.2 25.06" fill="#7a7a7a" clip-rule="evenodd"/></clipPath><clipPath id="clip-path-31"><polygon points="94.77 23.96 94.96 23.77 96.07 24.68 95.65 25.1 94.77 23.96" fill="#7a7a7a" clip-rule="evenodd"/></clipPath><clipPath id="clip-path-33"><polygon points="96.03 22.47 96.17 22.23 97.5 22.84 97.2 23.36 96.03 22.47" fill="#7a7a7a" clip-rule="evenodd"/></clipPath><clipPath id="clip-path-35"><polygon points="96.82 20.69 96.89 20.43 98.32 20.66 98.17 21.25 96.82 20.69" fill="#7a7a7a" clip-rule="evenodd"/></clipPath><clipPath id="clip-path-37"><polygon points="97.24 18.74 97.24 18.49 98.62 18.36 98.62 18.91 97.24 18.74" fill="#7a7a7a" clip-rule="evenodd"/></clipPath><clipPath id="clip-path-39"><polygon points="96.99 16.84 96.92 16.58 98.27 16.06 98.42 16.64 96.99 16.84" fill="#7a7a7a" clip-rule="evenodd"/></clipPath><clipPath id="clip-path-41"><polygon points="96.3 15.04 96.17 14.8 97.34 13.94 97.64 14.46 96.3 15.04" fill="#7a7a7a" clip-rule="evenodd"/></clipPath><clipPath id="clip-path-43"><polygon points="95.2 13.43 95.01 13.24 95.92 12.13 96.34 12.55 95.2 13.43" fill="#7a7a7a" clip-rule="evenodd"/></clipPath><clipPath id="clip-path-45"><polygon points="93.7 12.2 93.47 12.07 94.06 10.73 94.57 11.03 93.7 12.2" fill="#7a7a7a" clip-rule="evenodd"/></clipPath><clipPath id="clip-path-47"><polygon points="91.96 11.38 91.7 11.31 91.93 9.88 92.52 10.04 91.96 11.38" fill="#7a7a7a" clip-rule="evenodd"/></clipPath><clipPath id="clip-path-49"><path d="M86.61,13.83a5.66,5.66,0,0,1,6.93.36l-1.69.72a4.12,4.12,0,1,0,.34,7l.89,1.29a5.69,5.69,0,0,1-6.47-9.37" fill="#7a7a7a" clip-rule="evenodd"/></clipPath><clipPath id="clip-path-51"><path d="M90.09,18.89a.46.46,0,1,1,.11-.64.46.46,0,0,1-.11.64m4.43-3.64a.25.25,0,0,0-.31-.09L89.3,17.27a1.35,1.35,0,0,0-.57,2,1.33,1.33,0,0,0,2.06.16l3.7-3.86a.25.25,0,0,0,0-.32" fill="#373a36" clip-rule="evenodd"/></clipPath><clipPath id="clip-path-52"><rect x="80.95" y="9.65" width="106.61" height="17.82" fill="#373a36"/></clipPath></defs><title>Artboard 3</title><rect x="0.38" y="0.38" width="208.25" height="35.25" rx="1.62" fill="#fff"/><path d="M207,.75A1.25,1.25,0,0,1,208.25,2V34A1.25,1.25,0,0,1,207,35.25H2A1.25,1.25,0,0,1,.75,34V2A1.25,1.25,0,0,1,2,.75H207M207,0H2A2,2,0,0,0,0,2V34a2,2,0,0,0,2,2H207a2,2,0,0,0,2-2V2a2,2,0,0,0-2-2Z" fill="#373a36"/><path d="M108,16.8a2.37,2.37,0,0,0-1.18.29,2.15,2.15,0,0,0-.82.82,2.57,2.57,0,0,0-.29,1.23,2.53,2.53,0,0,0,.29,1.22,2,2,0,0,0,.79.82,2.23,2.23,0,0,0,1.16.3,3.13,3.13,0,0,0,1.17-.21,2.3,2.3,0,0,0,.87-.62l.68.68a3,3,0,0,1-1.17.87,4.07,4.07,0,0,1-1.6.3,3.53,3.53,0,0,1-1.76-.43A3,3,0,0,1,105,20.88a3.45,3.45,0,0,1-.43-1.74,3.53,3.53,0,0,1,.43-1.76,3,3,0,0,1,1.19-1.19,3.53,3.53,0,0,1,1.76-.43,4.18,4.18,0,0,1,1.54.26,3,3,0,0,1,1.14.75l-.65.8A2.71,2.71,0,0,0,108,16.8Z" fill="#7a7a7a"/><path d="M112.33,13.11h1.19v9.35h-1.19Z" fill="#7a7a7a"/><path d="M122.15,16.67a3.7,3.7,0,0,1,.8,2.54,3.78,3.78,0,0,1,0,.38H117.6a2.19,2.19,0,0,0,.76,1.42,2.22,2.22,0,0,0,1.52.53,2.9,2.9,0,0,0,1.12-.21,2.7,2.7,0,0,0,.91-.61l.65.67a3.56,3.56,0,0,1-1.2.82,4.13,4.13,0,0,1-1.56.29,3.69,3.69,0,0,1-1.78-.42,3.05,3.05,0,0,1-1.2-1.19,3.78,3.78,0,0,1,0-3.5,3.14,3.14,0,0,1,1.2-1.2,3.47,3.47,0,0,1,1.75-.43A3,3,0,0,1,122.15,16.67Zm-.27,2a2,2,0,0,0-.61-1.43,2.1,2.1,0,0,0-1.49-.52,2.14,2.14,0,0,0-1.49.53,2.25,2.25,0,0,0-.71,1.42Z" fill="#7a7a7a"/><path d="M129.86,22.46v-.93a2.78,2.78,0,0,1-2.37,1,2.65,2.65,0,0,1-1.23-.26,2,2,0,0,1-.82-.73,2,2,0,0,1-.29-1.05,1.74,1.74,0,0,1,.67-1.42,3.07,3.07,0,0,1,1.88-.53h2.15V18.2a1.36,1.36,0,0,0-.45-1.09,1.92,1.92,0,0,0-1.28-.38,3.68,3.68,0,0,0-2.08.72l-.5-.81a5.63,5.63,0,0,1,1.35-.67,4.57,4.57,0,0,1,1.47-.21,2.84,2.84,0,0,1,2,.61,2.21,2.21,0,0,1,.7,1.71l0,4.38Zm-.71-1.31a1.59,1.59,0,0,0,.7-1.06v-.66h-2a2.45,2.45,0,0,0-1.19.23.83.83,0,0,0-.39.76,1,1,0,0,0,.39.82,1.74,1.74,0,0,0,1.07.3A2.48,2.48,0,0,0,129.15,21.15Z" fill="#7a7a7a"/><path d="M136.44,16.14a2.86,2.86,0,0,1,1.46-.38v1.13a2.29,2.29,0,0,0-1.67.53A2.23,2.23,0,0,0,135.5,19v3.51h-1.19V15.8h1.19v1.43A2.4,2.4,0,0,1,136.44,16.14Z" fill="#7a7a7a"/><path d="M144.07,16.66a3.43,3.43,0,0,0-.94-.13,2,2,0,0,0-1,.24.82.82,0,0,0-.39.74.74.74,0,0,0,.21.55,1.53,1.53,0,0,0,.53.35,8.36,8.36,0,0,0,.87.3,8.51,8.51,0,0,1,1.13.39,2,2,0,0,1,.74.57,1.46,1.46,0,0,1,.31,1,1.57,1.57,0,0,1-.69,1.37,3,3,0,0,1-1.73.47,4.22,4.22,0,0,1-1.41-.24,3.1,3.1,0,0,1-1.13-.68l.34-.61a3.22,3.22,0,0,0,1,.62,3.42,3.42,0,0,0,1.21.23,2,2,0,0,0,1.11-.28.9.9,0,0,0,.42-.81.84.84,0,0,0-.21-.59,1.53,1.53,0,0,0-.55-.37c-.21-.09-.52-.19-.9-.31a7.92,7.92,0,0,1-1.1-.39,1.92,1.92,0,0,1-.71-.55,1.41,1.41,0,0,1-.3-.94,1.48,1.48,0,0,1,.66-1.31,2.93,2.93,0,0,1,1.64-.44,4.15,4.15,0,0,1,1.12.15,3.56,3.56,0,0,1,.95.42l-.33.64A3.27,3.27,0,0,0,144.07,16.66Z" fill="#373a36"/><path d="M154.1,15.86v6.6h-.87V20.89a2.46,2.46,0,0,1-1,1.18,3.08,3.08,0,0,1-1.59.42,2.48,2.48,0,0,1-1.86-.69,2.56,2.56,0,0,1-.67-1.88V15.86H149v3.86a2,2,0,0,0,.52,1.45,1.9,1.9,0,0,0,1.42.52,2.13,2.13,0,0,0,1.69-.72,2.77,2.77,0,0,0,.61-1.87V15.86Z" fill="#373a36"/><path d="M159.56,16.24a2.83,2.83,0,0,1,1.49-.41v.8a2.29,2.29,0,0,0-1.71.61,2.55,2.55,0,0,0-.74,1.69v3.53h-.85v-6.6h.85V17.4A2.58,2.58,0,0,1,159.56,16.24Z" fill="#373a36"/><path d="M167.45,22.46V21.35a2.38,2.38,0,0,1-1,.87,3.54,3.54,0,0,1-1.47.28,2.64,2.64,0,0,1-1.19-.26,1.91,1.91,0,0,1-.8-.71,1.86,1.86,0,0,1-.28-1,1.58,1.58,0,0,1,.67-1.35,3.06,3.06,0,0,1,1.85-.49h2.25v-.51A1.55,1.55,0,0,0,167,17a2,2,0,0,0-1.38-.42,3.67,3.67,0,0,0-2.16.79l-.38-.58a5.84,5.84,0,0,1,1.29-.69,4.35,4.35,0,0,1,1.41-.22,2.72,2.72,0,0,1,1.88.6,2.13,2.13,0,0,1,.67,1.66l0,4.37Zm-.85-1.07a2,2,0,0,0,.84-1.16v-.91h-2.16a2.54,2.54,0,0,0-1.34.29,1,1,0,0,0-.46.87,1.16,1.16,0,0,0,.44,1,1.78,1.78,0,0,0,1.17.36A2.7,2.7,0,0,0,166.6,21.39Z" fill="#373a36"/><path d="M177.13,16.52a2.58,2.58,0,0,1,.68,1.88v4.06h-.87V18.61a1.82,1.82,0,0,0-2-2,2.32,2.32,0,0,0-1.66.63,2.62,2.62,0,0,0-.71,1.67v3.55h-.85v-6.6h.85V17.4a2.42,2.42,0,0,1,1-1.16,3.31,3.31,0,0,1,1.63-.41A2.55,2.55,0,0,1,177.13,16.52Z" fill="#373a36"/><path d="M183.91,16.58a2.62,2.62,0,0,0-1.29.32,2.41,2.41,0,0,0-.9.92,2.79,2.79,0,0,0-.32,1.34,2.86,2.86,0,0,0,.32,1.35,2.41,2.41,0,0,0,.9.92,2.53,2.53,0,0,0,1.29.33,3.13,3.13,0,0,0,1.2-.23,2.49,2.49,0,0,0,.91-.65l.49.5a3,3,0,0,1-1.13.82,3.84,3.84,0,0,1-1.51.29,3.44,3.44,0,0,1-1.71-.42A3.07,3.07,0,0,1,181,20.88a3.65,3.65,0,0,1,0-3.44,3,3,0,0,1,1.18-1.18,3.34,3.34,0,0,1,1.71-.43,3.87,3.87,0,0,1,1.43.26,3,3,0,0,1,1.1.7l-.48.57A2.82,2.82,0,0,0,183.91,16.58Z" fill="#373a36"/><path d="M194.23,16.81a3.67,3.67,0,0,1,.75,2.63H189.4a2.55,2.55,0,0,0,.79,1.71,2.49,2.49,0,0,0,1.74.65,3.15,3.15,0,0,0,1.19-.23,2.8,2.8,0,0,0,.94-.64l.49.47a3.09,3.09,0,0,1-1.17.8,3.89,3.89,0,0,1-1.5.29,3.49,3.49,0,0,1-1.73-.42A3.11,3.11,0,0,1,189,20.89a3.68,3.68,0,0,1,0-3.45,3,3,0,0,1,1.18-1.18,3.33,3.33,0,0,1,1.7-.43A2.94,2.94,0,0,1,194.23,16.81Zm0,2a2.43,2.43,0,0,0-.7-1.64,2.27,2.27,0,0,0-1.66-.61,2.37,2.37,0,0,0-2.46,2.25Z" fill="#373a36"/><polygon points="90.02 11.03 89.77 11.03 89.63 9.65 90.19 9.65 90.02 11.03" fill="#7a7a7a" fill-rule="evenodd"/><g clip-path="url(#clip-path)"><rect x="80.95" y="9.65" width="106.61" height="17.82" fill="#7a7a7a"/><g clip-path="url(#clip-path-2)"><rect x="89.4" y="9.34" width="0.92" height="1.84" fill="#7a7a7a"/></g></g><polygon points="88.12 11.21 87.85 11.28 87.33 9.93 87.92 9.78 88.12 11.21" fill="#7a7a7a" fill-rule="evenodd"/><g clip-path="url(#clip-path-3)"><rect x="80.95" y="9.65" width="106.61" height="17.82" fill="#7a7a7a"/><g clip-path="url(#clip-path-2)"><rect x="87.25" y="9.65" width="1.08" height="1.84" fill="#7a7a7a"/></g></g><polygon points="86.31 11.9 86.07 12.03 85.22 10.86 85.74 10.56 86.31 11.9" fill="#7a7a7a" fill-rule="evenodd"/><g clip-path="url(#clip-path-5)"><rect x="80.95" y="9.65" width="106.61" height="17.82" fill="#7a7a7a"/><g clip-path="url(#clip-path-2)"><rect x="85.1" y="10.41" width="1.38" height="1.84" fill="#7a7a7a"/></g></g><polygon points="84.7 13 84.52 13.19 83.41 12.28 83.82 11.86 84.7 13" fill="#7a7a7a" fill-rule="evenodd"/><g clip-path="url(#clip-path-7)"><rect x="80.95" y="9.65" width="106.61" height="17.82" fill="#7a7a7a"/><g clip-path="url(#clip-path-2)"><rect x="83.26" y="11.64" width="1.69" height="1.69" fill="#7a7a7a"/></g></g><polygon points="83.47 14.53 83.34 14.76 82.01 14.16 82.31 13.63 83.47 14.53" fill="#7a7a7a" fill-rule="evenodd"/><g clip-path="url(#clip-path-9)"><rect x="80.95" y="9.65" width="106.61" height="17.82" fill="#7a7a7a"/><g clip-path="url(#clip-path-2)"><rect x="81.88" y="13.49" width="1.84" height="1.54" fill="#7a7a7a"/></g></g><polygon points="82.66 16.27 82.59 16.54 81.15 16.3 81.31 15.72 82.66 16.27" fill="#7a7a7a" fill-rule="evenodd"/><g clip-path="url(#clip-path-11)"><rect x="80.95" y="9.65" width="106.61" height="17.82" fill="#7a7a7a"/><g clip-path="url(#clip-path-2)"><rect x="80.95" y="15.48" width="1.84" height="1.23" fill="#7a7a7a"/></g></g><polygon points="82.34 18.18 82.34 18.43 80.95 18.57 80.95 18.01 82.34 18.18" fill="#7a7a7a" fill-rule="evenodd"/><g clip-path="url(#clip-path-13)"><rect x="80.95" y="9.65" width="106.61" height="17.82" fill="#7a7a7a"/><g clip-path="url(#clip-path-2)"><rect x="80.65" y="17.79" width="1.84" height="0.92" fill="#7a7a7a"/></g></g><polygon points="82.48 20.12 82.55 20.38 81.2 20.9 81.05 20.32 82.48 20.12" fill="#7a7a7a" fill-rule="evenodd"/><g clip-path="url(#clip-path-15)"><rect x="80.95" y="9.65" width="106.61" height="17.82" fill="#7a7a7a"/><g clip-path="url(#clip-path-2)"><rect x="80.95" y="19.94" width="1.84" height="1.08" fill="#7a7a7a"/></g></g><polygon points="83.17 21.96 83.3 22.2 82.13 23.05 81.84 22.53 83.17 21.96" fill="#7a7a7a" fill-rule="evenodd"/><g clip-path="url(#clip-path-17)"><rect x="80.95" y="9.65" width="106.61" height="17.82" fill="#7a7a7a"/><g clip-path="url(#clip-path-2)"><rect x="81.72" y="21.78" width="1.84" height="1.38" fill="#7a7a7a"/></g></g><polygon points="84.28 23.53 84.46 23.72 83.55 24.83 83.13 24.41 84.28 23.53" fill="#7a7a7a" fill-rule="evenodd"/><g clip-path="url(#clip-path-19)"><rect x="80.95" y="9.65" width="106.61" height="17.82" fill="#7a7a7a"/><g clip-path="url(#clip-path-2)"><rect x="82.95" y="23.32" width="1.69" height="1.69" fill="#7a7a7a"/></g></g><polygon points="85.77 24.76 86 24.89 85.42 26.23 84.91 25.93 85.77 24.76" fill="#7a7a7a" fill-rule="evenodd"/><g clip-path="url(#clip-path-21)"><rect x="80.95" y="9.65" width="106.61" height="17.82" fill="#7a7a7a"/><g clip-path="url(#clip-path-2)"><rect x="84.79" y="24.55" width="1.38" height="1.84" fill="#7a7a7a"/></g></g><polygon points="87.55 25.58 87.81 25.65 87.57 27.08 86.99 26.93 87.55 25.58" fill="#7a7a7a" fill-rule="evenodd"/><g clip-path="url(#clip-path-23)"><rect x="80.95" y="9.65" width="106.61" height="17.82" fill="#7a7a7a"/><g clip-path="url(#clip-path-2)"><rect x="86.79" y="25.47" width="1.23" height="1.84" fill="#7a7a7a"/></g></g><polygon points="89.46 25.93 89.71 25.93 89.85 27.31 89.29 27.31 89.46 25.93" fill="#7a7a7a" fill-rule="evenodd"/><g clip-path="url(#clip-path-25)"><rect x="80.95" y="9.65" width="106.61" height="17.82" fill="#7a7a7a"/><g clip-path="url(#clip-path-2)"><rect x="89.1" y="25.78" width="0.92" height="1.84" fill="#7a7a7a"/></g></g><polygon points="91.39 25.75 91.65 25.68 92.18 27.03 91.59 27.18 91.39 25.75" fill="#7a7a7a" fill-rule="evenodd"/><g clip-path="url(#clip-path-27)"><rect x="80.95" y="9.65" width="106.61" height="17.82" fill="#7a7a7a"/><g clip-path="url(#clip-path-2)"><rect x="91.25" y="25.47" width="1.08" height="1.84" fill="#7a7a7a"/></g></g><polygon points="93.2 25.06 93.43 24.93 94.29 26.1 93.77 26.4 93.2 25.06" fill="#7a7a7a" fill-rule="evenodd"/><g clip-path="url(#clip-path-29)"><rect x="80.95" y="9.65" width="106.61" height="17.82" fill="#7a7a7a"/><g clip-path="url(#clip-path-2)"><rect x="93.09" y="24.7" width="1.38" height="1.84" fill="#7a7a7a"/></g></g><polygon points="94.77 23.96 94.96 23.77 96.07 24.68 95.65 25.1 94.77 23.96" fill="#7a7a7a" fill-rule="evenodd"/><g clip-path="url(#clip-path-31)"><rect x="80.95" y="9.65" width="106.61" height="17.82" fill="#7a7a7a"/><g clip-path="url(#clip-path-2)"><rect x="94.63" y="23.63" width="1.69" height="1.69" fill="#7a7a7a"/></g></g><polygon points="96.03 22.47 96.17 22.23 97.5 22.84 97.2 23.36 96.03 22.47" fill="#7a7a7a" fill-rule="evenodd"/><g clip-path="url(#clip-path-33)"><rect x="80.95" y="9.65" width="106.61" height="17.82" fill="#7a7a7a"/><g clip-path="url(#clip-path-2)"><rect x="95.85" y="22.09" width="1.84" height="1.54" fill="#7a7a7a"/></g></g><polygon points="96.82 20.69 96.89 20.43 98.32 20.66 98.17 21.25 96.82 20.69" fill="#7a7a7a" fill-rule="evenodd"/><g clip-path="url(#clip-path-35)"><rect x="80.95" y="9.65" width="106.61" height="17.82" fill="#7a7a7a"/><g clip-path="url(#clip-path-2)"><rect x="96.62" y="20.25" width="1.84" height="1.23" fill="#7a7a7a"/></g></g><polygon points="97.24 18.74 97.24 18.49 98.62 18.36 98.62 18.91 97.24 18.74" fill="#7a7a7a" fill-rule="evenodd"/><g clip-path="url(#clip-path-37)"><rect x="80.95" y="9.65" width="106.61" height="17.82" fill="#7a7a7a"/><g clip-path="url(#clip-path-2)"><rect x="96.93" y="18.25" width="1.84" height="0.92" fill="#7a7a7a"/></g></g><polygon points="96.99 16.84 96.92 16.58 98.27 16.06 98.42 16.64 96.99 16.84" fill="#7a7a7a" fill-rule="evenodd"/><g clip-path="url(#clip-path-39)"><rect x="80.95" y="9.65" width="106.61" height="17.82" fill="#7a7a7a"/><g clip-path="url(#clip-path-2)"><rect x="96.78" y="15.94" width="1.84" height="1.08" fill="#7a7a7a"/></g></g><polygon points="96.3 15.04 96.17 14.8 97.34 13.94 97.64 14.46 96.3 15.04" fill="#7a7a7a" fill-rule="evenodd"/><g clip-path="url(#clip-path-41)"><rect x="80.95" y="9.65" width="106.61" height="17.82" fill="#7a7a7a"/><g clip-path="url(#clip-path-2)"><rect x="96.01" y="13.79" width="1.84" height="1.38" fill="#7a7a7a"/></g></g><polygon points="95.2 13.43 95.01 13.24 95.92 12.13 96.34 12.55 95.2 13.43" fill="#7a7a7a" fill-rule="evenodd"/><g clip-path="url(#clip-path-43)"><rect x="80.95" y="9.65" width="106.61" height="17.82" fill="#7a7a7a"/><g clip-path="url(#clip-path-2)"><rect x="94.78" y="11.95" width="1.69" height="1.69" fill="#7a7a7a"/></g></g><polygon points="93.7 12.2 93.47 12.07 94.06 10.73 94.57 11.03 93.7 12.2" fill="#7a7a7a" fill-rule="evenodd"/><g clip-path="url(#clip-path-45)"><rect x="80.95" y="9.65" width="106.61" height="17.82" fill="#7a7a7a"/><g clip-path="url(#clip-path-2)"><rect x="93.4" y="10.57" width="1.38" height="1.84" fill="#7a7a7a"/></g></g><polygon points="91.96 11.38 91.7 11.31 91.93 9.88 92.52 10.04 91.96 11.38" fill="#7a7a7a" fill-rule="evenodd"/><g clip-path="url(#clip-path-47)"><rect x="80.95" y="9.65" width="106.61" height="17.82" fill="#7a7a7a"/><g clip-path="url(#clip-path-2)"><rect x="91.55" y="9.65" width="1.23" height="1.84" fill="#7a7a7a"/></g></g><path d="M86.61,13.83a5.66,5.66,0,0,1,6.93.36l-1.69.72a4.12,4.12,0,1,0,.34,7l.89,1.29a5.69,5.69,0,0,1-6.47-9.37" fill="#7a7a7a" fill-rule="evenodd"/><g clip-path="url(#clip-path-49)"><rect x="80.95" y="9.65" width="106.61" height="17.82" fill="#7a7a7a"/><g clip-path="url(#clip-path-2)"><rect x="84.03" y="12.72" width="9.68" height="11.68" fill="#7a7a7a"/></g></g><path d="M90.09,18.89a.46.46,0,1,1,.11-.64.46.46,0,0,1-.11.64m4.43-3.64a.25.25,0,0,0-.31-.09L89.3,17.27a1.35,1.35,0,0,0-.57,2,1.33,1.33,0,0,0,2.06.16l3.7-3.86a.25.25,0,0,0,0-.32" fill="#373a36" fill-rule="evenodd"/><g clip-path="url(#clip-path-51)"><rect x="80.95" y="9.65" width="106.61" height="17.82" fill="#373a36"/><g clip-path="url(#clip-path-52)"><rect x="88.33" y="15.02" width="6.45" height="5.07" fill="#333"/></g></g><path d="M16,19.57v2.8H14.78V15.62h2.59a2.86,2.86,0,0,1,1.82.51,1.75,1.75,0,0,1,.64,1.46,1.44,1.44,0,0,1-.28.9,1.93,1.93,0,0,1-.82.6,1.44,1.44,0,0,1,.85.6,1.79,1.79,0,0,1,.26,1v.56a2.32,2.32,0,0,0,.08.58.85.85,0,0,0,.26.43v.1H19a.7.7,0,0,1-.25-.48,3.55,3.55,0,0,1-.06-.64V20.7a1.09,1.09,0,0,0-.31-.82,1.13,1.13,0,0,0-.85-.31Zm0-.9h1.36a1.67,1.67,0,0,0,1-.26,1,1,0,0,0,.32-.8,1,1,0,0,0-.32-.8,1.41,1.41,0,0,0-1-.29H16Z" fill="#373a36"/><path d="M23.41,22.47a2.31,2.31,0,0,1-1.77-.7A2.49,2.49,0,0,1,21,20v-.19A2.57,2.57,0,0,1,21.64,18a2.1,2.1,0,0,1,1.63-.72,2.07,2.07,0,0,1,1.62.62,2.33,2.33,0,0,1,.56,1.65v.66H22.2v0a1.56,1.56,0,0,0,.36,1,1.19,1.19,0,0,0,.93.38,2.69,2.69,0,0,0,.81-.11,3.27,3.27,0,0,0,.65-.32l.38.74a2.84,2.84,0,0,1-.78.42A3.53,3.53,0,0,1,23.41,22.47Zm-.14-4.3a.89.89,0,0,0-.71.33,1.6,1.6,0,0,0-.35.84v0h2.07v-.11a1.16,1.16,0,0,0-.25-.78A1,1,0,0,0,23.27,18.17Z" fill="#373a36"/><path d="M28.15,20.68l.08.4h0l.09-.4,1-3.33H30.6l-1.85,5h-1l-1.86-5h1.21Z" fill="#373a36"/><path d="M32.59,16.13H31.42v-1h1.17Zm0,6.24H31.42v-5h1.17Z" fill="#373a36"/><path d="M36.14,22.47a2.31,2.31,0,0,1-1.77-.7A2.49,2.49,0,0,1,33.71,20v-.19A2.57,2.57,0,0,1,34.37,18,2.1,2.1,0,0,1,36,17.26a2.07,2.07,0,0,1,1.62.62,2.33,2.33,0,0,1,.56,1.65v.66H34.93v0a1.56,1.56,0,0,0,.36,1,1.21,1.21,0,0,0,.93.38,2.69,2.69,0,0,0,.81-.11,3.27,3.27,0,0,0,.65-.32l.38.74a2.84,2.84,0,0,1-.78.42A3.53,3.53,0,0,1,36.14,22.47ZM36,18.17a.89.89,0,0,0-.71.33,1.6,1.6,0,0,0-.35.84v0H37v-.11a1.16,1.16,0,0,0-.25-.78A1,1,0,0,0,36,18.17Z" fill="#373a36"/><path d="M43.72,20.93h0l.82-3.57h1.12l-1.43,5h-1L42.19,19v0l-1.1,3.42h-1l-1.43-5h1.13l.83,3.52h0l1.08-3.53h.86Z" fill="#373a36"/><path d="M52.22,21.64a1.64,1.64,0,0,1-1.49.83A1.7,1.7,0,0,1,49.42,22a2.3,2.3,0,0,1-.47-1.6v-3h1.16v3a1.46,1.46,0,0,0,.23.92.83.83,0,0,0,.67.26,1.66,1.66,0,0,0,.71-.14,1.1,1.1,0,0,0,.45-.43V17.35h1.17v5h-1Z" fill="#373a36"/><path d="M57.5,21a.52.52,0,0,0-.23-.43,2.18,2.18,0,0,0-.86-.3A3.76,3.76,0,0,1,55,19.74a1.13,1.13,0,0,1-.48-1,1.31,1.31,0,0,1,.55-1.07,2.26,2.26,0,0,1,1.47-.45,2.34,2.34,0,0,1,1.51.45,1.31,1.31,0,0,1,.54,1.12v0H57.45a.69.69,0,0,0-.25-.53,1,1,0,0,0-.67-.22,1,1,0,0,0-.65.18.55.55,0,0,0-.22.45.51.51,0,0,0,.21.42,2.38,2.38,0,0,0,.85.27,3.77,3.77,0,0,1,1.46.55,1.14,1.14,0,0,1,.47,1,1.29,1.29,0,0,1-.58,1.1,2.54,2.54,0,0,1-1.53.42,2.44,2.44,0,0,1-1.61-.5,1.42,1.42,0,0,1-.56-1.15v0h1.09a.8.8,0,0,0,.33.64,1.41,1.41,0,0,0,.76.2,1.21,1.21,0,0,0,.69-.17A.51.51,0,0,0,57.5,21Z" fill="#373a36"/><path d="M62,19.82A2.64,2.64,0,0,1,62.59,18a2.5,2.5,0,0,1,3.51,0,2.64,2.64,0,0,1,.64,1.84v.1a2.63,2.63,0,0,1-.64,1.84,2.52,2.52,0,0,1-3.51,0A2.64,2.64,0,0,1,62,19.92Zm1.17.09a2.18,2.18,0,0,0,.3,1.2,1.15,1.15,0,0,0,1.84,0,2.1,2.1,0,0,0,.31-1.2v-.09a2.09,2.09,0,0,0-.31-1.19,1.15,1.15,0,0,0-1.84,0,2.19,2.19,0,0,0-.3,1.19Z" fill="#373a36"/><path d="M68.82,17.35l.07.73a1.78,1.78,0,0,1,.65-.6,1.88,1.88,0,0,1,2.14.26,2,2,0,0,1,.46,1.48v3.15H71V19.23a1.12,1.12,0,0,0-.25-.81,1.06,1.06,0,0,0-.74-.23,1.22,1.22,0,0,0-.61.14,1.33,1.33,0,0,0-.45.4v3.64H67.75v-5Z" fill="#373a36"/></svg>