<?xml version="1.0" encoding="UTF-8"?>
<svg width="20px" height="20px" viewBox="0 0 20 20" version="1.1" xmlns="http://www.w3.org/2000/svg" xmlns:xlink="http://www.w3.org/1999/xlink">
    <!-- Generator: Sketch 49.2 (51160) - http://www.bohemiancoding.com/sketch -->
    <title>Group 5</title>
    <desc>Created with Sketch.</desc>
    <defs>
        <polygon id="path-1" points="0 0.845 19.86535 0.845 19.86535 20.7101 0 20.7101"></polygon>
    </defs>
    <g id="Mobile-nav" stroke="none" stroke-width="1" fill="none" fill-rule="evenodd">
        <g id="Mobile-nav-—-Pay-Bill-open-state" transform="translate(-203.000000, -69.000000)">
            <g id="Page-1" transform="translate(203.000000, 68.000000)">
                <g id="Group-5" transform="translate(0.000000, 0.155400)">
                    <mask id="mask-2" fill="white">
                        <use xlink:href="#path-1"></use>
                    </mask>
                    <g id="Clip-4"></g>
                    <path d="M18.5446,10.0701 L10.6396,2.1651 C8.8786,0.4041 6.0316,0.4041 4.2706,2.1651 L1.3116,5.1251 C0.4496,5.9861 -0.0004,7.1101 -0.0004,8.3091 C-0.0004,9.5081 0.4496,10.6321 1.3116,11.4941 L9.2166,19.3981 C10.0776,20.2601 11.2016,20.7101 12.4006,20.7101 C13.5996,20.7101 14.7236,20.2601 15.5846,19.3981 L18.5446,16.4391 C20.3056,14.6781 20.3056,11.8311 18.5446,10.0701 Z M4.7956,2.7271 C5.5076,2.0151 6.4816,1.6411 7.4556,1.6411 C8.4296,1.6411 9.3656,2.0151 10.1156,2.7271 L12.1756,4.7881 L8.2796,8.6091 L3.5966,3.9261 L4.7956,2.7271 Z M3.8966,13.0301 L1.8356,10.9691 C1.1236,10.2571 0.7496,9.3211 0.7496,8.3091 C0.7496,7.2981 1.1236,6.3611 1.8356,5.6491 L3.0716,4.4131 L7.7546,9.0961 L3.8966,13.0301 C3.8966,12.9921 3.8966,12.9921 3.8966,13.0301 Z M15.0606,18.8741 C14.3486,19.5861 13.4116,19.9601 12.4006,19.9601 C11.3886,19.9601 10.4526,19.5861 9.7406,18.8741 L4.4206,13.5541 L12.6626,5.3121 L18.0206,10.6321 C19.4816,12.0931 19.4816,14.4531 18.0206,15.9141 L15.0606,18.8741 Z" id="Fill-3" fill="#F05136" mask="url(#mask-2)"></path>
                </g>
            </g>
        </g>
    </g>
</svg>