<?xml version="1.0" encoding="UTF-8"?>
<svg width="25px" height="16px" viewBox="0 0 25 16" version="1.1" xmlns="http://www.w3.org/2000/svg" xmlns:xlink="http://www.w3.org/1999/xlink">
    <!-- Generator: Sketch 49.2 (51160) - http://www.bohemiancoding.com/sketch -->
    <title>Group 3</title>
    <desc>Created with Sketch.</desc>
    <defs>
        <polygon id="path-1" points="0 0.5643 24.9158 0.5643 24.9158 15.9998 0 15.9998"></polygon>
    </defs>
    <g id="Mobile-nav" stroke="none" stroke-width="1" fill="none" fill-rule="evenodd">
        <g id="Mobile-nav-—menu-open-state" transform="translate(-24.000000, -534.000000)">
            <g id="Page-1" transform="translate(24.000000, 348.000000)">
                <g id="Group-15" transform="translate(0.000000, 0.954000)">
                    <g id="Group-3" transform="translate(0.000000, 185.000000)">
                        <mask id="mask-2" fill="white">
                            <use xlink:href="#path-1"></use>
                        </mask>
                        <g id="Clip-2"></g>
                        <path d="M0.3068,0.5658 C0.1268,0.5988 -0.0032,0.7498 -0.0002,0.9248 L-0.0002,4.5138 C-0.0002,4.7128 0.1688,4.8728 0.3778,4.8728 L24.5388,4.8728 C24.7468,4.8728 24.9158,4.7128 24.9158,4.5138 L24.9158,0.9248 C24.9158,0.7268 24.7468,0.5658 24.5388,0.5658 L0.3778,0.5658 C0.3538,0.5638 0.3308,0.5638 0.3068,0.5658 Z M0.7548,4.1548 L24.1608,4.1548 L24.1608,1.2838 L0.7548,1.2838 L0.7548,4.1548 Z M0.3068,6.6678 C0.1268,6.7008 -0.0032,6.8518 -0.0002,7.0268 L-0.0002,10.6158 C-0.0002,10.8138 0.1688,10.9748 0.3778,10.9748 L24.5388,10.9748 C24.7468,10.9748 24.9158,10.8138 24.9158,10.6158 L24.9158,7.0268 C24.9158,6.8288 24.7468,6.6678 24.5388,6.6678 L0.3778,6.6678 C0.3538,6.6658 0.3308,6.6658 0.3068,6.6678 Z M0.7548,10.2568 L24.1608,10.2568 L24.1608,7.3858 L0.7548,7.3858 L0.7548,10.2568 Z M15.7848,12.7698 C15.6048,12.8018 15.4748,12.9538 15.4778,13.1288 L15.4778,15.6408 C15.4778,15.8388 15.6468,15.9998 15.8558,15.9998 L24.5388,15.9998 C24.7468,15.9998 24.9158,15.8388 24.9158,15.6408 L24.9158,13.1288 C24.9158,12.9298 24.7468,12.7698 24.5388,12.7698 L15.8558,12.7698 C15.8318,12.7678 15.8088,12.7678 15.7848,12.7698 Z M16.2328,15.2828 L24.1608,15.2828 L24.1608,13.4878 L16.2328,13.4878 L16.2328,15.2828 Z" id="Fill-1" fill="#5F625F" mask="url(#mask-2)"></path>
                    </g>
                </g>
            </g>
        </g>
    </g>
</svg>