<?xml version="1.0" encoding="UTF-8"?>
<svg width="11px" height="13px" viewBox="0 0 11 13" version="1.1" xmlns="http://www.w3.org/2000/svg" xmlns:xlink="http://www.w3.org/1999/xlink">
    <!-- Generator: Sketch 49.2 (51160) - http://www.bohemiancoding.com/sketch -->
    <title>Stroke 1</title>
    <desc>Created with Sketch.</desc>
    <defs></defs>
    <g id="Mobile-nav" stroke="none" stroke-width="1" fill="none" fill-rule="evenodd">
        <g id="Mobile-nav-—-Pay-Bill-open-state" transform="translate(-196.000000, -258.000000)" fill="#FFFFFF">
            <path d="M196.001751,261.979512 C195.918656,265.35728 198.805135,269.128687 202.031877,270.09307 C203.352901,270.487922 204.824344,270.443645 206.298213,269.576306 C206.359473,269.541128 206.392225,269.480475 206.385553,269.422854 C206.205414,268.325034 205.31806,267.532905 204.347611,267.046468 C204.308793,267.024633 204.259057,267.029485 204.208715,267.056779 C203.003539,267.759748 202.160462,267.860432 201.432019,267.537151 C200.377262,267.071335 198.461232,264.434141 198.345992,263.289618 C198.271995,262.500522 198.633487,261.744785 199.671867,260.813154 C199.716144,260.776155 199.735553,260.730059 199.725242,260.683963 C199.562085,259.610404 199.082926,258.521681 198.097314,258.014622 C198.041513,257.986722 197.974188,257.999459 197.92142,258.046768 C196.565825,259.253764 196.035717,260.626949 196.001751,261.979512 Z" id="Stroke-1"></path>
        </g>
    </g>
</svg>