<?xml version="1.0" encoding="UTF-8"?>
<svg width="28px" height="18px" viewBox="0 0 28 18" version="1.1" xmlns="http://www.w3.org/2000/svg" xmlns:xlink="http://www.w3.org/1999/xlink">
    <!-- Generator: Sketch 49.2 (51160) - http://www.bohemiancoding.com/sketch -->
    <title>Fill 8</title>
    <desc>Created with Sketch.</desc>
    <defs></defs>
    <g id="Footer-visual-design" stroke="none" stroke-width="1" fill="none" fill-rule="evenodd">
        <g id="Mobile-Footer-" transform="translate(-30.000000, -304.000000)" fill="#FEFEFE">
            <path d="M42.1495066,322 C41.9120423,322 41.7173017,321.793557 41.7173017,321.540563 L41.7173017,317.598921 C41.714321,317.371226 41.86137,317.177939 42.0680335,317.135436 L42.1495066,317.139484 L57.5677951,317.139484 C57.8052594,317.139484 58,317.345927 58,317.598921 L58,321.540563 C58,321.793557 57.8052594,322 57.5677951,322 L42.1495066,322 Z M42.5817115,321.080115 L57.1365838,321.080115 L57.1365838,318.059369 L42.5817115,318.059369 L42.5817115,321.080115 Z M30.4312895,322 C30.1938252,322 30.0000781,321.793557 30.0000781,321.540563 L30.0000781,317.598921 C29.9961038,317.371226 30.1441464,317.177939 30.3508099,317.135436 L30.4312895,317.139484 L37.2154159,317.139484 C37.4538737,317.139484 37.6476208,317.345927 37.6476208,317.598921 L37.6476208,321.540563 C37.6476208,321.793557 37.4538737,322 37.2154159,322 L30.4312895,322 Z M30.8634943,321.080115 L36.7842046,321.080115 L36.7842046,318.059369 L30.8634943,318.059369 L30.8634943,321.080115 Z M42.1495066,315.432282 C41.9120423,315.432282 41.7173017,315.225839 41.7173017,314.971833 L41.7173017,311.031203 C41.714321,310.803508 41.86137,310.610221 42.0680335,310.567718 L42.1495066,310.570754 L57.5677951,310.570754 C57.8052594,310.570754 58,310.778209 58,311.031203 L58,314.971833 C58,315.225839 57.8052594,315.432282 57.5677951,315.432282 L42.1495066,315.432282 Z M42.5817115,314.512397 L57.1365838,314.512397 L57.1365838,311.491651 L42.5817115,311.491651 L42.5817115,314.512397 Z M30.4312895,315.432282 C30.1938252,315.432282 30.0000781,315.225839 30.0000781,314.971833 L30.0000781,311.031203 C29.9961038,310.803508 30.1441464,310.610221 30.3508099,310.567718 L30.4312895,310.570754 L37.2154159,310.570754 C37.4538737,310.570754 37.6476208,310.778209 37.6476208,311.031203 L37.6476208,314.971833 C37.6476208,315.225839 37.4538737,315.432282 37.2154159,315.432282 L30.4312895,315.432282 Z M30.8634943,314.512397 L36.7842046,314.512397 L36.7842046,311.491651 L30.8634943,311.491651 L30.8634943,314.512397 Z M42.1495066,308.863552 C41.9120423,308.863552 41.7173017,308.657109 41.7173017,308.404115 L41.7173017,304.462473 C41.714321,304.234778 41.86137,304.041491 42.0680335,304 L42.1495066,304.003036 L57.5677951,304.003036 C57.8052594,304.003036 58,304.209479 58,304.462473 L58,308.404115 C58,308.657109 57.8052594,308.863552 57.5677951,308.863552 L42.1495066,308.863552 Z M42.5817115,307.943667 L57.1365838,307.943667 L57.1365838,304.922921 L42.5817115,304.922921 L42.5817115,307.943667 Z M30.4312895,308.863552 C30.1938252,308.863552 30.0000781,308.657109 30.0000781,308.404115 L30.0000781,304.462473 C29.9961038,304.234778 30.1441464,304.041491 30.3508099,304 L30.4312895,304.003036 L37.2154159,304.003036 C37.4538737,304.003036 37.6476208,304.209479 37.6476208,304.462473 L37.6476208,308.404115 C37.6476208,308.657109 37.4538737,308.863552 37.2154159,308.863552 L30.4312895,308.863552 Z M30.8634943,307.943667 L36.7842046,307.943667 L36.7842046,304.922921 L30.8634943,304.922921 L30.8634943,307.943667 Z" id="Fill-8"></path>
        </g>
    </g>
</svg>