<?xml version="1.0" encoding="UTF-8"?>
<svg width="21px" height="20px" viewBox="0 0 21 20" version="1.1" xmlns="http://www.w3.org/2000/svg" xmlns:xlink="http://www.w3.org/1999/xlink">
    <!-- Generator: Sketch 49.2 (51160) - http://www.bohemiancoding.com/sketch -->
    <title>Group 6</title>
    <desc>Created with Sketch.</desc>
    <defs>
        <polygon id="path-1" points="0.4891 0.046 20.4271002 0.046 20.4271002 19.8977 0.4891 19.8977"></polygon>
    </defs>
    <g id="Mobile-nav" stroke="none" stroke-width="1" fill="none" fill-rule="evenodd">
        <g id="Mobile-nav-—menu-open-state" transform="translate(-26.000000, -349.000000)">
            <g id="Page-1" transform="translate(24.000000, 348.000000)">
                <g id="Group-15" transform="translate(0.000000, 0.954000)">
                    <g id="Group-6" transform="translate(2.000000, 0.000000)">
                        <g stroke-width="1">
                            <mask id="mask-2" fill="white">
                                <use xlink:href="#path-1"></use>
                            </mask>
                            <g id="Clip-5"></g>
                            <path d="M10.4211,0.0457 C4.9451,0.0457 0.4891,4.5037 0.4891,9.9837 C0.4891,15.4507 4.9451,19.8977 10.4211,19.8977 C15.9381,19.8977 20.4271,15.4507 20.4271,9.9837 C20.4281,4.5037 15.9381,0.0457 10.4211,0.0457 M10.4211,19.0307 C5.4221,19.0307 1.3551,14.9717 1.3551,9.9837 C1.3551,4.9827 5.4221,0.9117 10.4211,0.9117 C15.4611,0.9117 19.5611,4.9817 19.5611,9.9837 C19.5621,14.9727 15.4611,19.0307 10.4211,19.0307" id="Fill-4" fill="#5F625F" mask="url(#mask-2)"></path>
                        </g>
                        <path d="M10.4948,9.5752 C9.6188,9.5752 9.1608,8.9082 9.1608,8.2492 C9.1608,7.5192 9.8108,6.9472 10.6418,6.9472 C11.0368,6.9472 11.4258,7.0882 11.7098,7.3312 L12.0378,7.6132 L12.6028,6.9572 L12.2748,6.6742 C11.8938,6.3472 11.3948,6.1512 10.8788,6.1022 L10.8788,5.2192 L10.0118,5.2192 L10.0118,6.1662 C9.0128,6.4152 8.2938,7.2372 8.2938,8.2492 C8.2938,9.4982 9.2398,10.4412 10.4948,10.4412 C11.2608,10.4412 11.7558,10.9422 11.7558,11.7182 C11.7558,12.4112 11.0768,12.9962 10.2738,12.9962 C9.8558,12.9962 9.4688,12.8602 9.1818,12.6132 L8.8538,12.3302 L8.2878,12.9862 L8.6158,13.2692 C8.9958,13.5982 9.4868,13.7902 10.0118,13.8402 L10.0118,14.7252 L10.8778,14.7252 L10.8778,13.7812 C11.8788,13.5362 12.6208,12.7092 12.6208,11.7192 C12.6218,10.4772 11.7278,9.5752 10.4948,9.5752" id="Fill-7" fill="#5F625F"></path>
                        <path d="M10.4211,1.7811 C5.8911,1.7811 2.2071,5.4611 2.2071,9.9841 C2.2071,14.5081 5.8911,18.1881 10.4211,18.1881 C14.9771,18.1881 18.6851,14.5081 18.6851,9.9841 C18.6851,5.4611 14.9771,1.7811 10.4211,1.7811 M10.4211,17.3221 C6.3701,17.3221 3.0731,14.0301 3.0731,9.9841 C3.0731,5.9391 6.3701,2.6471 10.4211,2.6471 C14.5001,2.6471 17.8181,5.9391 17.8181,9.9841 C17.8181,14.0301 14.5001,17.3221 10.4211,17.3221" id="Fill-9" fill="#5F625F"></path>
                    </g>
                </g>
            </g>
        </g>
    </g>
</svg>