<?xml version="1.0" encoding="UTF-8"?>
<svg width="19px" height="30px" viewBox="0 0 19 30" version="1.1" xmlns="http://www.w3.org/2000/svg" xmlns:xlink="http://www.w3.org/1999/xlink">
    <!-- Generator: Sketch 49.2 (51160) - http://www.bohemiancoding.com/sketch -->
    <title>Stroke 3</title>
    <desc>Created with Sketch.</desc>
    <defs></defs>
    <g id="Footer-visual-design" stroke="none" stroke-width="1" fill="none" fill-rule="evenodd">
        <g id="Mobile-Footer-" transform="translate(-36.000000, -135.000000)" stroke="#FEFEFE">
            <path d="M37.6154427,142.763248 C35.4991276,149.416394 39.0617236,158.518759 44.920303,162.243405 C47.3195214,163.768936 50.2696566,164.506292 53.700231,163.61449 C53.8431716,163.578618 53.9434286,163.477979 53.9632814,163.358408 C54.2382436,161.080574 52.9319253,159.010994 51.2841378,157.50041 C51.2186233,157.435643 51.1163811,157.41671 51.0002419,157.442618 C48.1990031,158.161042 46.4648557,157.887024 45.2032063,156.83679 C43.3747578,155.320227 41.0877081,149.013837 41.5205005,146.678211 C41.8282199,145.07197 42.9826638,143.774622 45.5863665,142.510155 C45.6945646,142.462327 45.7600791,142.381616 45.7660349,142.283966 C46.0618426,140.062929 45.7372483,137.634635 44.0706006,136.075226 C43.9762995,135.988537 43.8353442,135.97658 43.70233,136.040351 C40.309476,137.673496 38.4641525,140.098801 37.6154427,142.763248 Z" id="Stroke-3"></path>
        </g>
    </g>
</svg>