<?xml version="1.0" encoding="UTF-8"?>
<svg width="19px" height="22px" viewBox="0 0 19 22" version="1.1" xmlns="http://www.w3.org/2000/svg" xmlns:xlink="http://www.w3.org/1999/xlink">
    <!-- Generator: Sketch 49.2 (51160) - http://www.bohemiancoding.com/sketch -->
    <title>Stroke 1</title>
    <desc>Created with Sketch.</desc>
    <defs></defs>
    <g id="Mobile-nav" stroke="none" stroke-width="1" fill="none" fill-rule="evenodd">
        <g id="Mobile-nav-—-Pay-Bill-open-state" transform="translate(-205.000000, -120.000000)" stroke="#F05136">
            <g id="Page-1" transform="translate(203.000000, 68.000000)">
                <path d="M3.00288714,59.5611075 C2.86588714,65.1301075 7.62488714,71.3481075 12.9448871,72.9381075 C15.1228871,73.5891075 17.5488871,73.5161075 19.9788871,72.0861075 C20.0798871,72.0281075 20.1338871,71.9281075 20.1228871,71.8331075 C19.8258871,70.0231075 18.3628871,68.7171075 16.7628871,67.9151075 C16.6988871,67.8791075 16.6168871,67.8871075 16.5338871,67.9321075 C14.5468871,69.0911075 13.1568871,69.2571075 11.9558871,68.7241075 C10.2168871,67.9561075 7.05788714,63.6081075 6.86788714,61.7211075 C6.74588714,60.4201075 7.34188714,59.1741075 9.05388714,57.6381075 C9.12688714,57.5771075 9.15888714,57.5011075 9.14188714,57.4251075 C8.87288714,55.6551075 8.08288714,53.8601075 6.45788714,53.0241075 C6.36588714,52.9781075 6.25488714,52.9991075 6.16788714,53.0771075 C3.93288714,55.0671075 3.05888714,57.3311075 3.00288714,59.5611075 Z" id="Stroke-1"></path>
            </g>
        </g>
    </g>
</svg>