<?xml version="1.0" encoding="UTF-8"?>
<svg width="21px" height="24px" viewBox="0 0 21 24" version="1.1" xmlns="http://www.w3.org/2000/svg" xmlns:xlink="http://www.w3.org/1999/xlink">
    <!-- Generator: Sketch 49.2 (51160) - http://www.bohemiancoding.com/sketch -->
    <title>Stroke 13</title>
    <desc>Created with Sketch.</desc>
    <defs></defs>
    <g id="Mobile-nav" stroke="none" stroke-width="1" fill="none" fill-rule="evenodd">
        <g id="Mobile-nav-—menu-open-state" transform="translate(-26.000000, -437.000000)" stroke="#5F625F" stroke-width="0.866">
            <g id="Page-1" transform="translate(24.000000, 348.000000)">
                <g id="Group-15" transform="translate(0.000000, 0.954000)">
                    <path d="M3.2173,96.1255 C3.0363,102.1955 8.2063,108.9465 14.0153,110.6495 C16.3933,111.3475 19.0453,111.2545 21.7103,109.6835 C21.8213,109.6195 21.8813,109.5105 21.8693,109.4065 C21.5543,107.4355 19.9623,106.0205 18.2173,105.1545 C18.1473,105.1165 18.0573,105.1245 17.9663,105.1745 C15.7873,106.4485 14.2673,106.6375 12.9573,106.0635 C11.0593,105.2355 7.6293,100.5135 7.4323,98.4585 C7.3053,97.0415 7.9633,95.6795 9.8443,93.9965 C9.9233,93.9305 9.9593,93.8475 9.9413,93.7635 C9.6573,91.8365 8.8023,89.8845 7.0303,88.9825 C6.9303,88.9325 6.8093,88.9565 6.7133,89.0415 C4.2583,91.2225 3.2903,93.6945 3.2173,96.1255 Z" id="Stroke-13"></path>
                </g>
            </g>
        </g>
    </g>
</svg>