<svg id="Layer_1" data-name="Layer 1" xmlns="http://www.w3.org/2000/svg" width="210" height="30" viewBox="0 0 210 30"><defs><style>.cls-1,.cls-3{fill:#373a36;}.cls-1,.cls-4{fill-rule:evenodd;}.cls-2{isolation:isolate;}.cls-4{fill:#eb3300;}</style></defs><title>Artboard 1</title><path id="Fill-4" class="cls-1" d="M188.68,22.62V11.38h1.61c3.91,0,5.7,2.33,5.7,5.62s-1.79,5.62-5.7,5.62Zm-3.62,3.19h5.41c5.44,0,9.27-3.6,9.27-8.81s-3.86-8.8-9.27-8.8h-5.41Zm-17.64,0H179V22.62h-8V8.2h-3.62Zm-19.53,0h12V22.62h-8.4V18.17h7.07V15.06h-7.07V11.38h8V8.2H147.89Zm-12,0h3.62V8.2h-3.62Zm-18.62,0h3.62V18.53h7V15.3h-7V11.38h7.72V8.2H117.25Zm-14.43,0h3.62V11.38h5V8.2H97.79v3.18h5ZM87.46,26c3.44,0,6-1.78,6-5.05,0-3-1.74-4.37-4.82-5.7l-.91-.38c-1.55-.68-2.22-1.12-2.22-2.21a1.57,1.57,0,0,1,1.73-1.55,2.46,2.46,0,0,1,2.33,1.55l2.83-1.81A5.36,5.36,0,0,0,87.25,8c-3.24,0-5.31,2.07-5.31,4.79,0,3,1.74,4.35,4.35,5.47l.91.38c1.66.73,2.64,1.17,2.64,2.41,0,1-1,1.79-2.46,1.79a3.93,3.93,0,0,1-3.57-2.2l-3,1.71A7,7,0,0,0,87.46,26Zm-23.57-.23h12V22.62h-8.4V18.17h7.08V15.06H67.51V11.38h8V8.2H63.89ZM41.2,26h.36l4.12-8.5a28,28,0,0,0,1-2.62,27.33,27.33,0,0,0,1,2.62l4,8.5H52L58.4,8.2H54.87l-2.53,7.07c-.44,1.22-.94,3.18-.94,3.18a21.93,21.93,0,0,0-1.08-3.18L46.87,8h-.36l-3.39,7.23A22.5,22.5,0,0,0,42,18.45s-.49-2-.93-3.18L38.53,8.2H34.7Z"/><path id="Fill-6" class="cls-1" d="M14.41,21.92a6.77,6.77,0,1,0-6.77-6.77,6.77,6.77,0,0,0,6.77,6.77"/><path id="Fill-9" class="cls-1" d="M18.63,25.34h6v-6Zm-14.41-6v6h6ZM10.19,5h-6v6Zm14.41,6V5h-6Z"/><g class="cls-2"><path class="cls-3" d="M201.86,9.8a3.37,3.37,0,0,1,.41-1.65A3.06,3.06,0,0,1,205,6.51a3.09,3.09,0,0,1,2.7,1.64,3.48,3.48,0,0,1,.41,1.65,3.52,3.52,0,0,1-.39,1.62,3.13,3.13,0,0,1-1.13,1.21,2.87,2.87,0,0,1-1.59.46,3,3,0,0,1-1.6-.45,3.17,3.17,0,0,1-1.12-1.21A3.42,3.42,0,0,1,201.86,9.8Zm.5,0a2.91,2.91,0,0,0,.35,1.4,2.67,2.67,0,0,0,1,1,2.51,2.51,0,0,0,1.31.36,2.43,2.43,0,0,0,1.31-.37,2.61,2.61,0,0,0,1-1,2.91,2.91,0,0,0,.35-1.4,2.83,2.83,0,0,0-.35-1.38,2.61,2.61,0,0,0-1-1A2.43,2.43,0,0,0,205,7a2.57,2.57,0,0,0-2.27,1.37A2.86,2.86,0,0,0,202.36,9.79Zm2,.34v1.48h-.62V7.88h1.21a1.7,1.7,0,0,1,1.05.29,1,1,0,0,1,.37.84.89.89,0,0,1-.56.82.9.9,0,0,1,.54.9V11a1.43,1.43,0,0,0,.07.54v.07h-.64a1.75,1.75,0,0,1-.06-.56,4.65,4.65,0,0,0,0-.48c-.05-.29-.24-.43-.58-.44Zm0-.57H205a.81.81,0,0,0,.51-.15.47.47,0,0,0,.19-.38.55.55,0,0,0-.17-.45,1,1,0,0,0-.61-.14h-.61Z"/></g><path id="Fill-10" class="cls-4" d="M10.19,5h8.44L14.41.74ZM24.6,19.38l4.22-4.22L24.6,10.93ZM0,15.16l4.22,4.22V10.93ZM10.19,25.35l4.22,4.22,4.22-4.22Z"/></svg>