<svg id="Layer_1" data-name="Layer 1" xmlns="http://www.w3.org/2000/svg" xmlns:xlink="http://www.w3.org/1999/xlink" width="145.65" height="67.12" viewBox="0 0 145.65 67.12"><defs><style>.cls-1,.cls-4{fill:#fff;}.cls-1{fill-rule:evenodd;}.cls-2{mask:url(#mask);}.cls-3{isolation:isolate;}</style><mask id="mask" x="0" y="51.82" width="139.34" height="15.3" maskUnits="userSpaceOnUse"><g id="mask-2"><polygon id="path-1" class="cls-1" points="0 51.82 139.34 51.82 139.34 67.12 0 67.12 0 51.82"/></g></mask></defs><title>Logo_Footer_2019</title><g id="Footer-visual-design"><g id="Mobile-Footer-"><g id="Page-1"><path id="Fill-1" class="cls-1" d="M73.29,33.24A10.62,10.62,0,1,0,62.71,22.62,10.6,10.6,0,0,0,73.29,33.24"/><path id="Fill-3" class="cls-1" d="M79.89,38.62h9.33V29.25ZM57.36,29.25v9.37h9.33ZM66.69,6.63H57.36V16ZM89.22,16V6.63H79.89Z"/><path id="Fill-4" class="cls-1" d="M73.29,0l-6.6,6.63h13.2ZM89.22,29.25l6.6-6.63L89.22,16ZM50.76,22.62l6.6,6.63V16Zm15.93,16,6.6,6.62,6.6-6.62Z"/><g id="Group-11"><g id="Group-10"><g class="cls-2"><path id="Fill-8" class="cls-1" d="M130,64.23V54.7h1.36c3.3,0,4.81,2,4.81,4.76s-1.51,4.77-4.81,4.77Zm-3.06,2.7h4.57c4.59,0,7.83-3.06,7.83-7.47S136.08,52,131.51,52h-4.57Zm-14.89,0h9.8v-2.7h-6.74V52h-3.06Zm-16.49,0h10.15v-2.7H98.62V60.45h6V57.82h-6V54.7h6.78V52H95.56Zm-10.15,0h3.07V52H85.41Zm-15.72,0h3.06V60.76h5.93V58H72.75V54.7h6.52V52H69.69Zm-12.18,0h3.06V54.7h4.25V52H53.27v2.7h4.24Zm-13,.19c2.91,0,5.08-1.51,5.08-4.28,0-2.57-1.47-3.71-4.07-4.83l-.77-.33c-1.31-.57-1.88-.94-1.88-1.86a1.34,1.34,0,0,1,1.47-1.32,2.09,2.09,0,0,1,2,1.32l2.38-1.54a4.51,4.51,0,0,0-4.35-2.46c-2.73,0-4.48,1.76-4.48,4.06,0,2.5,1.46,3.69,3.67,4.64l.77.32c1.4.62,2.23,1,2.23,2,0,.87-.81,1.51-2.08,1.51a3.33,3.33,0,0,1-3-1.87L39,64A5.86,5.86,0,0,0,44.54,67.12Zm-19.9-.19H34.79v-2.7H27.71V60.45h6V57.82h-6V54.7h6.78V52H24.64Zm-19.15.13H5.8l3.47-7.2a23.55,23.55,0,0,0,.85-2.22A22.36,22.36,0,0,0,11,59.86l3.34,7.2h.31L20,52H17l-2.15,6c-.37,1-.79,2.7-.79,2.7a18.74,18.74,0,0,0-.91-2.7l-2.91-6.13H10L7.11,58a19.32,19.32,0,0,0-.92,2.7S5.77,59,5.4,58L3.24,52H0Z"/></g></g></g></g></g></g><g class="cls-3"><path class="cls-4" d="M141.28,53.28a2.43,2.43,0,0,1,.29-1.16,2.22,2.22,0,0,1,.8-.84,2.12,2.12,0,0,1,1.1-.3,2.14,2.14,0,0,1,1.1.3,2.28,2.28,0,0,1,.79.84,2.43,2.43,0,0,1,.29,1.16,2.34,2.34,0,0,1-.28,1.13,2.09,2.09,0,0,1-.79.85,2,2,0,0,1-1.11.32,2.08,2.08,0,0,1-1.12-.31,2.3,2.3,0,0,1-.79-.85A2.35,2.35,0,0,1,141.28,53.28Zm.35,0a2,2,0,0,0,.25,1,1.83,1.83,0,0,0,.67.71,1.75,1.75,0,0,0,.92.26,1.78,1.78,0,0,0,.92-.26,1.88,1.88,0,0,0,.66-.71,2.1,2.1,0,0,0,0-2,1.85,1.85,0,0,0-.66-.7,1.77,1.77,0,0,0-.92-.25,1.74,1.74,0,0,0-.92.25,1.81,1.81,0,0,0-.67.7A2.07,2.07,0,0,0,141.63,53.28Zm1.38.23v1h-.43V51.93h.85a1.13,1.13,0,0,1,.73.21.7.7,0,0,1,.26.58.63.63,0,0,1-.39.58.62.62,0,0,1,.38.63v.19a.94.94,0,0,0,.05.38v0H144a1.28,1.28,0,0,1,0-.4c0-.19,0-.3,0-.33,0-.2-.17-.3-.4-.31Zm0-.4h.48a.64.64,0,0,0,.36-.1.33.33,0,0,0,.14-.27.38.38,0,0,0-.12-.32.76.76,0,0,0-.43-.09H143Z"/></g></svg>